<?xml version="1.0"?>
<svg version="1.1" xmlns="http://www.w3.org/2000/svg" width="116px" height="47px" style=""><path fill="#39b8f7" d="M7.075,39.65q0-0.7,2.875-5.425q-2.05,0-2.725,0.175q-1.125,0.275-1.675,1.125q-0.2,0.275-0.3375,0.3t-0.1375-0.1125t0.1-0.2375q0.95-1.275,1.875-1.75t2.925-0.475l0.6,0q1.525-2.325,4.275-6.9q1.025-1.925,1.025-3.125q0-1.925-2.35-1.95l-0.275,0q-3.2,0-5.825,1.6t-4.15,3.975t-1.525,4.275q0,2.325,2.175,2.325q1.725,0,2.95-1.525t1.225-2.9q0-0.775-0.4-1.275q-0.05-0.05-0.05-0.125q0-0.175,0.2-0.175q0.1,0,0.15,0.075q0.5,0.65,0.5,1.55q0,1.525-1.25,3.1125t-2.625,1.7625q-0.425,0.075-0.825,0.075q-1.6,0-2.475-1.025q-0.85-0.925-0.85-2.5q0-0.65,0.15-1.325q0.75-3.375,4.3375-5.9t8.0625-2.525q1.725,0,2.9625,0.7375t1.2375,2.0625t-0.925,2.8l-4.525,6.95q0.8,0.025,2.8625,0.2375t3.1,0.2125t1.3875-0.025l0.95-1.575q2.425-4.075,5.6125-7.6125t5.5625-4.3875q0.075-0.025,0.15-0.025q0.175,0,0.175,0.2q0,0.075-0.075,0.125q-1.6,0.9-4.5875,4.3625t-5.1625,7.1125l-0.975,1.65q1.15-0.15,1.65-0.575q0.1-0.075,0.175,0.0875t-0.025,0.2375q-0.75,0.575-2.125,0.825q-1.75,3.25-1.75,4.575q0,0.85,0.725,0.85q0.5,0,1.1625-0.3375t0.8875-0.575t0.275-0.2375t0.025,0.1625t-0.1,0.2625q-0.425,0.4-1.275,0.85t-1.375,0.45t-0.775-0.175q-0.8-0.525-0.8-1.825t1.325-3.8q-0.925,0.075-1.725,0.075q-0.275,0-5.875-0.175q-1.775,2.8-2.85,5.1q-0.325,0.675-0.7875,0.675t-0.4625-0.375z M31.40425,33.2q0,0.875-1.675,2.925q-1.975,2.425-3.375,2.425l-0.4,0q-0.65,0-1.025-0.675q-0.3-0.475-0.3-1.05q0-1.5,2.1875-4.2125t3.5375-2.7125q1.275,0,1.275,1.35q0,0.35-0.125,0.9q0.025,0.075,0.475,0.075t1.375-0.475q-0.025,0.425-1.975,1.225q0.025,0.1,0.025,0.225z M29.77925,31.9q-0.85,0-2.4125,2t-1.5625,2.95t0.6,0.95q1.075,0,2.725-1.95t1.65-2.8q-0.4-0.225-1-1.15z M39.5335,30.45l3.6-0.05q0.075,0.05,0.075,0.075q0,0.225-3.1125,0.625t-3.3625,0.475q-0.475,0.425-1.75,2.5375t-1.275,3.0875q0,0.925,1.275,0.925q0.6,0,1.575-0.375t1.5-0.7q1.4-0.875,3-2.575q0.35-0.35,0.475-0.35q0.075,0,0.075,0.15t-0.375,0.6q-1.3,1.6-2.925,2.575q-1.95,1.2-3.725,1.2q-0.775,0-1.2625-0.3375t-0.4875-1.3625t0.9-2.8125t1.375-2.6625q-0.35,0.075-0.6,0.075q-0.725,0-0.725-0.575q0-0.425,0.6-0.6q0.075,0,0.225-0.025l1.45,0q0.45-0.575,1.025-1.325q0.7-0.9,0.95-0.9t0.625,0.2t0.375,0.475t-1.2,1.625q0.65,0.025,1.7,0.025z M42.81275,38.825q-0.275,0-0.5-0.075q-1.6-0.45-1.6-1.8q0-1.75,2.2-4.05t3.95-2.3q0.575,0,0.9375,0.3125t0.3625,0.7625q0,1.4-2.1125,2.675t-3.4375,1.275q-0.2,0-0.35-0.05q-0.375,0.675-0.375,1.425q0,1.3,1.2375,1.3t3.2125-1.675q1.525-1.225,2.6-2.6q0.225-0.3,0.3875-0.3t0.1625,0.15t-0.2,0.425q-1.35,1.775-3.25,3.15t-3.225,1.375z M47.53775,31.625q0-0.3-0.6375-0.3t-1.8125,0.975q-1.575,1.3-2.45,2.725q0.15,0.05,0.325,0.05q0.95,0,2.5375-1.0125t1.9875-2.2125q0.05-0.125,0.05-0.225z M50.867,38q0.825,0,2.125-0.875t2.525-2.375q0.3-0.4,0.475-0.4t0.175,0.15t-1.025,1.3q-2.5,2.75-4.175,2.75q-0.825,0-1.4-0.3875t-0.575-1.2t0.425-1.8875q0.725-1.7,2.325-4.275q2.925-4.75,4.15-4.75q0.25,0,0.5125,0.1875t0.2875,0.4125q-0.575,0.775-2.2125,2.975t-2.2625,3.1625t-0.9375,1.4375t-0.4625,0.7375t-0.35,0.6875q-0.425,0.85-0.425,1.6t0.825,0.75z"/><path fill="#ab6905" d="M76.25,33.775q0,0.9-0.4,1.7q-0.85,1.8-3.25,3t-5,1.2q-3.95,0-5.375-2.7q-2.575,2.15-3.675,2.15q-0.2,0-0.35-0.075q-0.75-0.4-0.75-1.725t1.1-3.25t1.925-2.275q0.375-0.125,0.575-0.125q0.725,0,1.1,1.2l0.75,2.4q0.725-0.775,1.975-2.475l2.225-3q4.1-5.325,5.375-5.825q0.45-0.175,0.925-0.175t0.7875,0.2t0.3125,0.5q0,0.45-0.725,0.525q-0.75,0.425-2.8625,2.4875t-2.5125,2.6125q-2.8,3.9-5.175,6q1.525,3.025,4.575,3.025q1.85,0,3.675-1.1625t2.725-2.8625q0.4-0.725,0.4-1.625t-0.7125-1.7125t-1.7875-1.1875q-0.5-0.075-1.6-0.2125t-1.1-0.4625q0-0.125,0.1-0.225q0.3-0.35,0.775-0.35q0.275,0,0.5375,0.1t0.4125,0.15t0.35,0.125q0.55,0.05,0.95,0.05q1.65,0,3-0.525q1.725-0.675,2.2-2.025q0.3-0.875,0.3-1.575q0-1.725-1.675-2.575q-1.45-0.75-3.975-0.75q-3.975,0-7.125,1.5q-1.6,0.75-3.0375,2.225t-1.4375,2.525q0,0.725,0.375,1.2q0.15,0.2,0.525,0.5q0.125,0.075-0.15,0.075q-1.55-0.35-1.55-2.075t1.75-3.25q1.3-1.125,2.925-1.825q3.375-1.45,7.675-1.45q3.075,0,4.9,0.9q2.125,1,2.125,3.025q0,0.8-0.325,1.625q-0.525,1.5-2.725,2.275q-1.65,0.575-3.55,0.6q1.475,0.075,2.4875,1.0875t1.0125,2.5125z M60.275,32.85q-0.025,0-0.125,0.05q-1.85,2.675-1.85,4.3q0,0.675,0.325,1.225q0.075,0.125,0.25,0.125q0.8,0,3.075-2.275l-0.075-0.1q-1-3.325-1.6-3.325z M84.27925,32.275q0-1.7,1.05-1.7q0.1,0,0.225,0.025q0.425,0.075,0.425,0.65t-0.2,1.45q-0.2,0.65-0.275,0.975q0.075,0.425,0.4125,1.0875t0.925,0.6625t1.3125-0.8q0.15-0.175,0.2875-0.175t0.15,0.1625t-0.1875,0.4375q-0.775,0.925-1.625,0.925q-1.225,0-1.975-1.8q-0.775,1.775-2.2,3.0625t-2.825,1.2875q-1.325,0-1.325-2q0-1.575,2.9375-5.8t4.4875-4.225q0.325,0,0.5875,0.2t0.2625,0.475q0-0.025-0.3625,0.375t-1.975,2.15t-3.1625,3.85t-1.55,3.25q0,0.3,0.1625,0.65t0.5375,0.35q1.1,0,2.575-1.7q1.225-1.5,1.5-2.525q-0.175-0.525-0.175-1.3z M97.1085,31.025l0.35-0.075q0.275,0,0.525,0.225t0.25,0.35t-1.55,2.4125t-1.55,3.1875q0,0.075,0.025,0.15q0.125,0.575,0.55,0.575q1.3,0,4.75-4.3q0.075-0.1,0.175-0.1t0.1,0.1875t-0.225,0.4875q-3.2,4.275-4.875,4.275q-0.225,0-0.425-0.075q-1.1-0.425-1.1-1.65q0-0.425,0.1-0.85l-1.55,1.5q-1.475,1.3-2.1375,1.3t-1.2625-0.425q-0.675-0.5-0.675-1.325q0-1.825,2.55-4.3625t4.675-2.5375q0.825,0,1.1,0.575q0.075,0.2,0.125,0.3375t0.075,0.1375z M89.6335,37.175q0,0.9,0.625,0.9q1.45,0,3.95-3.175l2.65-3.65q-0.2-0.35-0.65-0.35q-1.525,0-4.05,2.3625t-2.525,3.9125z M98.81275,41.4q1.2,1.5,2.075,1.5q1.425,0,3.075-2.275q1.2-1.675,2.35-4.225l0.95-2.3l-3.675,2.875q-1.7,1.325-2.725,1.325q-0.55,0-0.875-0.375t-0.325-0.85q0-1.075,1.85-3.5375t2.7-2.4625t0.85,0.575q0,0.225-2.2125,2.5875t-2.2125,3.1875q0,0.325,0.425,0.325q0.8,0,3.2125-1.875t3.6375-3.1q0.275-0.325,0.775-0.975q0.475-0.55,1.05-0.55t0.575,0.55q0,0.1-1.125,1.775t-1.175,1.775q-0.775,1.5-2.375,4.375q-2.425,3.9-4.85,3.9q-0.8,0-1.4-0.6875t-0.575-1.5375z"/></svg>
